<svg width="32" height="32" viewBox="0 0 32 32" fill="none" xmlns="http://www.w3.org/2000/svg">
<path d="M10.6653 29.3333H21.332C22.8027 29.3333 23.9987 28.1373 23.9987 26.6666V5.33329C23.9987 3.86263 22.8027 2.66663 21.332 2.66663H10.6653C9.19467 2.66663 7.99867 3.86263 7.99867 5.33329V26.6666C7.99867 28.1373 9.19467 29.3333 10.6653 29.3333ZM3.99867 9.33329H6.66533V6.66663H3.99867V7.33329H2.66533V8.66663H3.99867V9.33329ZM27.9987 6.66663H25.332V9.33329H27.9987V8.66663H29.332V7.33329H27.9987V6.66663ZM3.99867 14.6666H6.66533V12H3.99867V12.6666H2.66533V14H3.99867V14.6666ZM27.9987 12H25.332V14.6666H27.9987V14H29.332V12.6666H27.9987V12ZM3.99867 20H6.66533V17.3333H3.99867V18H2.66533V19.3333H3.99867V20ZM27.9987 17.3333H25.332V20H27.9987V19.3333H29.332V18H27.9987V17.3333ZM3.99867 25.3333H6.66533V22.6666H3.99867V23.3333H2.66533V24.6666H3.99867V25.3333ZM27.9987 22.6666H25.332V25.3333H27.9987V24.6666H29.332V23.3333H27.9987V22.6666Z" fill="#FF4C29"/>
</svg>
